<svg width="30" height="30" viewBox="0 0 30 30" fill="none" xmlns="http://www.w3.org/2000/svg">
<g id="ep:arrow-up">
<path id="Vector" d="M19.9126 14.3216L9.46318 4.36537C9.28883 4.19916 9.05719 4.10644 8.81631 4.10644C8.57542 4.10644 8.34379 4.19916 8.16943 4.36537L8.15818 4.37662C8.07337 4.4572 8.00583 4.55419 7.95968 4.66168C7.91353 4.76918 7.88973 4.88495 7.88973 5.00194C7.88973 5.11892 7.91353 5.23469 7.95968 5.34219C8.00583 5.44969 8.07337 5.54667 8.15818 5.62725L17.9982 15.0022L8.15818 24.3735C8.07337 24.4541 8.00583 24.5511 7.95968 24.6586C7.91353 24.7661 7.88973 24.8818 7.88973 24.9988C7.88973 25.1158 7.91353 25.2316 7.95968 25.3391C8.00583 25.4466 8.07337 25.5435 8.15818 25.6241L8.16943 25.6354C8.34378 25.8016 8.57542 25.8943 8.81631 25.8943C9.05719 25.8943 9.28883 25.8016 9.46318 25.6354L19.9126 15.6791C20.0045 15.5916 20.0776 15.4863 20.1276 15.3696C20.1776 15.2529 20.2034 15.1273 20.2034 15.0004C20.2034 14.8734 20.1776 14.7478 20.1276 14.6312C20.0776 14.5145 20.0045 14.4092 19.9126 14.3216Z" fill="#212427"/>
</g>
</svg>
