<svg width="18" height="18" viewBox="0 0 18 18" fill="none" xmlns="http://www.w3.org/2000/svg">
<path d="M11.9476 8.59298L5.67796 2.61922C5.57335 2.5195 5.43436 2.46387 5.28983 2.46387C5.1453 2.46387 5.00632 2.5195 4.90171 2.61922L4.89496 2.62597C4.84407 2.67432 4.80355 2.73251 4.77586 2.79701C4.74817 2.86151 4.73389 2.93097 4.73389 3.00116C4.73389 3.07135 4.74817 3.14081 4.77586 3.20531C4.80355 3.26981 4.84407 3.328 4.89496 3.37635L10.799 9.00135L4.89496 14.6241C4.84407 14.6724 4.80355 14.7306 4.77586 14.7951C4.74817 14.8596 4.73389 14.9291 4.73389 14.9993C4.73389 15.0695 4.74817 15.1389 4.77586 15.2034C4.80355 15.2679 4.84407 15.3261 4.89496 15.3745L4.90171 15.3812C5.00632 15.481 5.1453 15.5366 5.28983 15.5366C5.43436 15.5366 5.57335 15.481 5.67796 15.3812L11.9476 9.40748C12.0027 9.35494 12.0466 9.29176 12.0766 9.22175C12.1066 9.15175 12.1221 9.07638 12.1221 9.00023C12.1221 8.92407 12.1066 8.8487 12.0766 8.7787C12.0466 8.70869 12.0027 8.64551 11.9476 8.59298Z" fill="#212427" fill-opacity="0.5"/>
</svg>
