<svg width="30" height="30" viewBox="0 0 30 30" fill="none" xmlns="http://www.w3.org/2000/svg">
<g id="ep:arrow-up">
<path id="Vector" d="M10.0877 14.3216L20.5371 4.36537C20.7114 4.19916 20.9431 4.10644 21.1839 4.10644C21.4248 4.10644 21.6565 4.19916 21.8308 4.36537L21.8421 4.37662C21.9269 4.4572 21.9944 4.55419 22.0406 4.66168C22.0867 4.76918 22.1105 4.88495 22.1105 5.00194C22.1105 5.11892 22.0867 5.23469 22.0406 5.34219C21.9944 5.44969 21.9269 5.54667 21.8421 5.62725L12.0021 15.0022L21.8421 24.3735C21.9269 24.4541 21.9944 24.5511 22.0406 24.6586C22.0867 24.7661 22.1105 24.8818 22.1105 24.9988C22.1105 25.1158 22.0867 25.2316 22.0406 25.3391C21.9944 25.4466 21.9269 25.5435 21.8421 25.6241L21.8308 25.6354C21.6565 25.8016 21.4248 25.8943 21.1839 25.8943C20.9431 25.8943 20.7114 25.8016 20.5371 25.6354L10.0877 15.6791C9.99579 15.5916 9.92263 15.4863 9.87264 15.3696C9.82265 15.2529 9.79688 15.1273 9.79688 15.0004C9.79688 14.8734 9.82265 14.7478 9.87264 14.6312C9.92263 14.5145 9.99579 14.4092 10.0877 14.3216Z" fill="#212427"/>
</g>
</svg>
