<svg width="current" height="current" viewBox="0 0 23 23" fill="none" xmlns="http://www.w3.org/2000/svg">
<path d="M11.5 2.33594C9.68752 2.33594 7.91575 2.8734 6.40872 3.88036C4.9017 4.88732 3.72712 6.31855 3.03351 7.99307C2.33991 9.66758 2.15843 11.5102 2.51203 13.2878C2.86562 15.0655 3.73842 16.6984 5.02003 17.98C6.30165 19.2616 7.93453 20.1344 9.71218 20.488C11.4898 20.8416 13.3324 20.6601 15.0069 19.9665C16.6815 19.2729 18.1127 18.0983 19.1196 16.5913C20.1266 15.0843 20.6641 13.3125 20.6641 11.5C20.6612 9.07042 19.6948 6.74116 17.9768 5.02318C16.2588 3.3052 13.9296 2.33879 11.5 2.33594ZM18.8286 8.08594H15.2186C14.8258 6.45652 14.1093 4.92274 13.1118 3.57578C14.3502 3.83026 15.5119 4.37057 16.5045 5.15362C17.497 5.93667 18.2929 6.9408 18.8286 8.08594ZM19.5859 11.5C19.5865 12.2913 19.4706 13.0784 19.2418 13.8359H15.4406C15.6969 12.2892 15.6969 10.7108 15.4406 9.16406H19.2418C19.4706 9.92159 19.5865 10.7087 19.5859 11.5ZM11.5 19.5859C11.4776 19.5861 11.4554 19.5814 11.435 19.5723C11.4145 19.5631 11.3963 19.5497 11.3814 19.5329C10.2242 18.2868 9.3743 16.6867 8.89454 14.9141H14.1055C13.6257 16.6867 12.7758 18.2868 11.6186 19.5329C11.6037 19.5497 11.5855 19.5631 11.565 19.5723C11.5446 19.5814 11.5224 19.5861 11.5 19.5859ZM8.65286 13.8359C8.37615 12.2909 8.37615 10.7091 8.65286 9.16406H14.3472C14.6239 10.7091 14.6239 12.2909 14.3472 13.8359H8.65286ZM3.41407 11.5C3.41346 10.7087 3.52941 9.92159 3.75817 9.16406H7.55946C7.30308 10.7108 7.30308 12.2892 7.55946 13.8359H3.75817C3.52941 13.0784 3.41346 12.2913 3.41407 11.5ZM11.5 3.41406C11.5224 3.41394 11.5446 3.4186 11.565 3.42775C11.5855 3.43689 11.6037 3.4503 11.6186 3.46707C12.7758 4.7132 13.6257 6.31332 14.1055 8.08594H8.89454C9.3743 6.31332 10.2242 4.7132 11.3814 3.46707C11.3963 3.4503 11.4145 3.43689 11.435 3.42775C11.4554 3.4186 11.4776 3.41394 11.5 3.41406ZM9.88821 3.57578C8.89069 4.92274 8.17421 6.45652 7.78137 8.08594H4.17145C4.70714 6.9408 5.50299 5.93667 6.49553 5.15362C7.48807 4.37057 8.64984 3.83026 9.88821 3.57578ZM4.17145 14.9141H7.78137C8.17421 16.5435 8.89069 18.0773 9.88821 19.4242C8.64984 19.1697 7.48807 18.6294 6.49553 17.8464C5.50299 17.0633 4.70714 16.0592 4.17145 14.9141ZM13.1118 19.4242C14.1093 18.0773 14.8258 16.5435 15.2186 14.9141H18.8286C18.2929 16.0592 17.497 17.0633 16.5045 17.8464C15.5119 18.6294 14.3502 19.1697 13.1118 19.4242Z" fill="#212427" fill-opacity="0.75"/>
</svg>
