<svg width="34" height="34" viewBox="0 0 34 34" fill="none" xmlns="http://www.w3.org/2000/svg">
<path fill-rule="evenodd" clip-rule="evenodd" d="M17.0001 2.12505C16.7183 2.12505 16.4481 2.23699 16.2488 2.43625C16.0496 2.63551 15.9376 2.90576 15.9376 3.18755L15.9376 28.2477L9.25237 21.5603C9.05287 21.3608 8.78227 21.2487 8.50012 21.2487C8.21798 21.2487 7.94738 21.3608 7.74787 21.5603C7.54836 21.7598 7.43628 22.0304 7.43628 22.3126C7.43628 22.5947 7.54836 22.8653 7.74787 23.0648L16.2479 31.5648C16.3466 31.6637 16.4638 31.7423 16.5929 31.7958C16.722 31.8494 16.8604 31.877 17.0001 31.877C17.1399 31.877 17.2783 31.8494 17.4073 31.7958C17.5364 31.7423 17.6537 31.6637 17.7524 31.5648L26.2524 23.0648C26.3512 22.966 26.4295 22.8487 26.483 22.7197C26.5364 22.5906 26.564 22.4523 26.564 22.3126C26.564 22.0304 26.4519 21.7598 26.2524 21.5603C26.0529 21.3608 25.7823 21.2487 25.5001 21.2487C25.218 21.2487 24.9474 21.3608 24.7479 21.5603L18.0626 28.2477L18.0626 3.18755C18.0626 2.90576 17.9507 2.63551 17.7514 2.43625C17.5522 2.23699 17.2819 2.12505 17.0001 2.12505Z" fill="#545454"/>
</svg>
