<svg width="34" height="33" viewBox="0 0 34 33" fill="none" xmlns="http://www.w3.org/2000/svg">
<g id="bi:person">
<path id="Vector" d="M16.7142 16.456C17.8725 16.456 18.9835 15.9958 19.8026 15.1767C20.6217 14.3576 21.0818 13.2467 21.0818 12.0884C21.0818 10.93 20.6217 9.81905 19.8026 8.99996C18.9835 8.18086 17.8725 7.7207 16.7142 7.7207C15.5558 7.7207 14.4449 8.18086 13.6258 8.99996C12.8067 9.81905 12.3465 10.93 12.3465 12.0884C12.3465 13.2467 12.8067 14.3576 13.6258 15.1767C14.4449 15.9958 15.5558 16.456 16.7142 16.456ZM19.6259 12.0884C19.6259 12.8606 19.3192 13.6012 18.7731 14.1473C18.227 14.6933 17.4864 15.0001 16.7142 15.0001C15.9419 15.0001 15.2013 14.6933 14.6552 14.1473C14.1092 13.6012 13.8024 12.8606 13.8024 12.0884C13.8024 11.3161 14.1092 10.5755 14.6552 10.0294C15.2013 9.48336 15.9419 9.17659 16.7142 9.17659C17.4864 9.17659 18.227 9.48336 18.7731 10.0294C19.3192 10.5755 19.6259 11.3161 19.6259 12.0884ZM25.4495 23.7795C25.4495 25.2354 23.9936 25.2354 23.9936 25.2354H9.43476C9.43476 25.2354 7.97888 25.2354 7.97888 23.7795C7.97888 22.3237 9.43476 17.956 16.7142 17.956C23.9936 17.956 25.4495 22.3237 25.4495 23.7795ZM23.9936 23.7737C23.9921 23.4156 23.7694 22.3382 22.7823 21.3511C21.8331 20.4019 20.0467 19.4119 16.7142 19.4119C13.3802 19.4119 11.5953 20.4019 10.6461 21.3511C9.65897 22.3382 9.43768 23.4156 9.43476 23.7737H23.9936Z" fill="#212427" fill-opacity="0.75"/>
</g>
</svg>
