<svg xmlns="http://www.w3.org/2000/svg" width="34" height="34" viewBox="0 0 34 34" fill="none">
  <path d="M5.3125 8.50005H3.1875C2.90571 8.50005 2.63546 8.38811 2.4362 8.18885C2.23694 7.98959 2.125 7.71934 2.125 7.43755C2.125 7.15576 2.23694 6.88551 2.4362 6.68625C2.63546 6.48699 2.90571 6.37505 3.1875 6.37505H11.6875V3.18542C11.6875 2.90363 11.7994 2.63338 11.9987 2.43412C12.198 2.23487 12.4682 2.12292 12.75 2.12292H21.25C21.5318 2.12292 21.802 2.23487 22.0013 2.43412C22.2006 2.63338 22.3125 2.90363 22.3125 3.18542V6.37505H30.8125C31.0943 6.37505 31.3645 6.48699 31.5638 6.68625C31.7631 6.88551 31.875 7.15576 31.875 7.43755C31.875 7.71934 31.7631 7.98959 31.5638 8.18885C31.3645 8.38811 31.0943 8.50005 30.8125 8.50005H28.6875V30.8126C28.6875 31.0943 28.5756 31.3646 28.3763 31.5639C28.177 31.7631 27.9068 31.8751 27.625 31.8751H6.375C6.09321 31.8751 5.82296 31.7631 5.6237 31.5639C5.42444 31.3646 5.3125 31.0943 5.3125 30.8126V8.50005ZM20.1875 6.37505V4.25005H13.8125V6.37505H20.1875ZM7.4375 29.7501H26.5625V8.50005H7.4375V29.7501ZM13.8125 25.5001C13.5307 25.5001 13.2605 25.3881 13.0612 25.1889C12.8619 24.9896 12.75 24.7193 12.75 24.4376V13.8125C12.75 13.5308 12.8619 13.2605 13.0612 13.0612C13.2605 12.862 13.5307 12.75 13.8125 12.75C14.0943 12.75 14.3645 12.862 14.5638 13.0612C14.7631 13.2605 14.875 13.5308 14.875 13.8125V24.4376C14.875 24.7193 14.7631 24.9896 14.5638 25.1889C14.3645 25.3881 14.0943 25.5001 13.8125 25.5001ZM20.1875 25.5001C19.9057 25.5001 19.6355 25.3881 19.4362 25.1889C19.2369 24.9896 19.125 24.7193 19.125 24.4376V13.8125C19.125 13.5308 19.2369 13.2605 19.4362 13.0612C19.6355 12.862 19.9057 12.75 20.1875 12.75C20.4693 12.75 20.7395 12.862 20.9388 13.0612C21.1381 13.2605 21.25 13.5308 21.25 13.8125V24.4376C21.25 24.7193 21.1381 24.9896 20.9388 25.1889C20.7395 25.3881 20.4693 25.5001 20.1875 25.5001Z" fill="#545454"/>
</svg>