<svg width="18" height="18" viewBox="0 0 18 18" fill="none" xmlns="http://www.w3.org/2000/svg">
<path d="M4.5 6.75V5.4375C4.5 2.88375 6.37725 0.75 9 0.75C11.6228 0.75 13.5 2.88375 13.5 5.4375V6.75H13.875C14.3723 6.75 14.8492 6.94754 15.2008 7.29917C15.5525 7.65081 15.75 8.12772 15.75 8.625V14.625C15.75 15.1223 15.5525 15.5992 15.2008 15.9508C14.8492 16.3025 14.3723 16.5 13.875 16.5H4.125C3.62772 16.5 3.15081 16.3025 2.79917 15.9508C2.44754 15.5992 2.25 15.1223 2.25 14.625V8.625C2.25 8.12772 2.44754 7.65081 2.79917 7.29917C3.15081 6.94754 3.62772 6.75 4.125 6.75H4.5ZM3.375 8.625V14.625C3.375 14.8239 3.45402 15.0147 3.59467 15.1553C3.73532 15.296 3.92609 15.375 4.125 15.375H13.875C14.0739 15.375 14.2647 15.296 14.4053 15.1553C14.546 15.0147 14.625 14.8239 14.625 14.625V8.625C14.625 8.42609 14.546 8.23532 14.4053 8.09467C14.2647 7.95402 14.0739 7.875 13.875 7.875H4.125C3.92609 7.875 3.73532 7.95402 3.59467 8.09467C3.45402 8.23532 3.375 8.42609 3.375 8.625ZM5.625 5.4375V6.75H12.375V5.4375C12.375 3.435 10.9335 1.875 9 1.875C7.0665 1.875 5.625 3.435 5.625 5.4375Z" fill="#212427" fill-opacity="0.5"/>
</svg>
