<svg width="18" height="18" viewBox="0 0 18 18" fill="none" xmlns="http://www.w3.org/2000/svg">
<g id="arrow-down">
<path id="Vector" d="M9.40727 11.9476L15.381 5.67796C15.4807 5.57335 15.5364 5.43436 15.5364 5.28983C15.5364 5.1453 15.4807 5.00632 15.381 4.90171L15.3743 4.89496C15.3259 4.84407 15.2677 4.80355 15.2032 4.77586C15.1387 4.74817 15.0693 4.73389 14.9991 4.73389C14.9289 4.73389 14.8594 4.74817 14.7949 4.77586C14.7304 4.80355 14.6722 4.84407 14.6239 4.89496L8.99889 10.799L3.37614 4.89496C3.3278 4.84407 3.26961 4.80355 3.20511 4.77586C3.14061 4.74816 3.07115 4.73389 3.00096 4.73389C2.93076 4.73389 2.86131 4.74816 2.79681 4.77586C2.73231 4.80355 2.67411 4.84407 2.62577 4.89496L2.61902 4.90171C2.51929 5.00632 2.46366 5.1453 2.46366 5.28983C2.46366 5.43436 2.51929 5.57335 2.61902 5.67796L8.59277 11.9476C8.6453 12.0027 8.70849 12.0466 8.77849 12.0766C8.8485 12.1066 8.92386 12.1221 9.00002 12.1221C9.07618 12.1221 9.15154 12.1066 9.22155 12.0766C9.29155 12.0466 9.35473 12.0027 9.40727 11.9476Z" fill="black"/>
</g>
</svg>
