
<svg xmlns="http://www.w3.org/2000/svg" width="30" height="30" viewBox="0 0 30 30" fill="none">
  <path d="M19.9126 14.3213L9.46318 4.36501C9.28883 4.1988 9.05719 4.10608 8.81631 4.10608C8.57542 4.10608 8.34379 4.1988 8.16943 4.36501L8.15818 4.37626C8.07337 4.45683 8.00583 4.55382 7.95968 4.66132C7.91353 4.76882 7.88973 4.88458 7.88973 5.00157C7.88973 5.11856 7.91353 5.23432 7.95968 5.34182C8.00583 5.44932 8.07337 5.54631 8.15818 5.62688L17.9982 15.0019L8.15818 24.3731C8.07337 24.4537 8.00583 24.5507 7.95968 24.6582C7.91353 24.7657 7.88973 24.8815 7.88973 24.9984C7.88973 25.1154 7.91353 25.2312 7.95968 25.3387C8.00583 25.4462 8.07337 25.5432 8.15818 25.6238L8.16943 25.635C8.34378 25.8012 8.57542 25.8939 8.81631 25.8939C9.05719 25.8939 9.28883 25.8012 9.46318 25.635L19.9126 15.6788C20.0045 15.5912 20.0776 15.4859 20.1276 15.3692C20.1776 15.2525 20.2034 15.1269 20.2034 15C20.2034 14.8731 20.1776 14.7475 20.1276 14.6308C20.0776 14.5141 20.0045 14.4088 19.9126 14.3213Z" fill="#212427"/>
</svg>