<svg width="21" height="22" viewBox="0 0 21 22" fill="none" xmlns="http://www.w3.org/2000/svg">
<g id="ph:file-plus-thin">
<path id="Vector" d="M17.2946 7.4866L12.7009 2.89285C12.6704 2.86239 12.6342 2.83824 12.5944 2.82177C12.5545 2.8053 12.5119 2.79684 12.4688 2.79688H4.59375C4.33268 2.79688 4.0823 2.90059 3.89769 3.08519C3.71309 3.2698 3.60938 3.52018 3.60938 3.78125V18.2188C3.60938 18.4798 3.71309 18.7302 3.89769 18.9148C4.0823 19.0994 4.33268 19.2031 4.59375 19.2031H16.4062C16.6673 19.2031 16.9177 19.0994 17.1023 18.9148C17.2869 18.7302 17.3906 18.4798 17.3906 18.2188V7.71875C17.3907 7.67565 17.3822 7.63296 17.3657 7.59313C17.3493 7.55329 17.3251 7.5171 17.2946 7.4866ZM12.7969 3.9166L16.2701 7.39062H12.7969V3.9166ZM16.4062 18.5469H4.59375C4.50673 18.5469 4.42327 18.5123 4.36173 18.4508C4.3002 18.3892 4.26562 18.3058 4.26562 18.2188V3.78125C4.26562 3.69423 4.3002 3.61077 4.36173 3.54923C4.42327 3.4877 4.50673 3.45313 4.59375 3.45313H12.1406V7.71875C12.1406 7.80577 12.1752 7.88923 12.2367 7.95077C12.2983 8.01231 12.3817 8.04688 12.4688 8.04688H16.7344V18.2188C16.7344 18.3058 16.6998 18.3892 16.6383 18.4508C16.5767 18.5123 16.4933 18.5469 16.4062 18.5469ZM12.7969 12.9688C12.7969 13.0558 12.7623 13.1392 12.7008 13.2008C12.6392 13.2623 12.5558 13.2969 12.4688 13.2969H10.8281V14.9375C10.8281 15.0245 10.7936 15.108 10.732 15.1695C10.6705 15.2311 10.587 15.2656 10.5 15.2656C10.413 15.2656 10.3295 15.2311 10.268 15.1695C10.2064 15.108 10.1719 15.0245 10.1719 14.9375V13.2969H8.53125C8.44423 13.2969 8.36077 13.2623 8.29923 13.2008C8.23769 13.1392 8.20312 13.0558 8.20312 12.9688C8.20312 12.8817 8.23769 12.7983 8.29923 12.7367C8.36077 12.6752 8.44423 12.6406 8.53125 12.6406H10.1719V11C10.1719 10.913 10.2064 10.8295 10.268 10.768C10.3295 10.7064 10.413 10.6719 10.5 10.6719C10.587 10.6719 10.6705 10.7064 10.732 10.768C10.7936 10.8295 10.8281 10.913 10.8281 11V12.6406H12.4688C12.5558 12.6406 12.6392 12.6752 12.7008 12.7367C12.7623 12.7983 12.7969 12.8817 12.7969 12.9688Z" fill="#353C49"/>
</g>
</svg>
