<svg width="27" height="27" viewBox="0 0 27 27" fill="none" xmlns="http://www.w3.org/2000/svg">
<g id="ph:arrow-up">
<path id="Vector" d="M14.3553 20.449C14.2937 20.3863 14.2449 20.3119 14.2116 20.23C14.1783 20.148 14.1612 20.0602 14.1612 19.9715C14.1612 19.8828 14.1783 19.795 14.2116 19.713C14.2449 19.6311 14.2937 19.5566 14.3553 19.494L19.1819 14.5718L6.2208 14.5718C6.04529 14.5718 5.87697 14.5007 5.75287 14.3742C5.62877 14.2476 5.55905 14.0759 5.55905 13.8969C5.55905 13.7179 5.62877 13.5462 5.75287 13.4196C5.87697 13.2931 6.04529 13.2219 6.2208 13.2219L19.1819 13.2219L14.3553 8.29983C14.2311 8.17318 14.1613 8.00141 14.1613 7.8223C14.1613 7.64319 14.2311 7.47142 14.3553 7.34477C14.4794 7.21812 14.6479 7.14697 14.8235 7.14697C14.9991 7.14697 15.1675 7.21812 15.2916 7.34477L21.2473 13.4194C21.3089 13.482 21.3577 13.5565 21.391 13.6384C21.4243 13.7204 21.4414 13.8082 21.4414 13.8969C21.4414 13.9856 21.4243 14.0734 21.391 14.1554C21.3577 14.2373 21.3089 14.3117 21.2473 14.3744L15.2916 20.449C15.2302 20.5118 15.1572 20.5616 15.0769 20.5955C14.9965 20.6295 14.9104 20.647 14.8235 20.647C14.7365 20.647 14.6504 20.6295 14.57 20.5955C14.4897 20.5616 14.4167 20.5118 14.3553 20.449Z" fill="#212427"/>
</g>
</svg>
