<svg width="21" height="21" viewBox="0 0 21 21" fill="none" xmlns="http://www.w3.org/2000/svg">
<g id="radix-icons:question-mark-circled">
<path id="Vector" fill-rule="evenodd" clip-rule="evenodd" d="M1.22778 10.5002C1.22778 8.04109 2.20467 5.68267 3.94355 3.94379C5.68242 2.20492 8.04084 1.22803 10.5 1.22803C12.9591 1.22803 15.3175 2.20492 17.0564 3.94379C18.7953 5.68267 19.7722 8.04109 19.7722 10.5002C19.7722 12.9594 18.7953 15.3178 17.0564 17.0567C15.3175 18.7955 12.9591 19.7724 10.5 19.7724C8.04084 19.7724 5.68242 18.7955 3.94355 17.0567C2.20467 15.3178 1.22778 12.9594 1.22778 10.5002ZM10.5 2.55803C8.39358 2.55803 6.37345 3.39479 4.884 4.88424C3.39455 6.3737 2.55778 8.39383 2.55778 10.5002C2.55778 12.6066 3.39455 14.6268 4.884 16.1162C6.37345 17.6057 8.39358 18.4424 10.5 18.4424C12.6064 18.4424 14.6265 17.6057 16.116 16.1162C17.6054 14.6268 18.4422 12.6066 18.4422 10.5002C18.4422 8.39383 17.6054 6.3737 16.116 4.88424C14.6265 3.39479 12.6064 2.55803 10.5 2.55803ZM11.55 14.7002C11.55 14.9787 11.4394 15.2458 11.2424 15.4427C11.0455 15.6396 10.7785 15.7502 10.5 15.7502C10.2215 15.7502 9.95444 15.6396 9.75752 15.4427C9.56061 15.2458 9.44998 14.9787 9.44998 14.7002C9.44998 14.4218 9.56061 14.1547 9.75752 13.9578C9.95444 13.7609 10.2215 13.6502 10.5 13.6502C10.7785 13.6502 11.0455 13.7609 11.2424 13.9578C11.4394 14.1547 11.55 14.4218 11.55 14.7002ZM8.46998 8.75023C8.46998 7.80103 9.28898 6.89523 10.5 6.89523C11.711 6.89523 12.53 7.80103 12.53 8.75023C12.53 9.43763 12.152 9.78903 11.4996 10.1852C11.4282 10.23 11.3442 10.2776 11.2532 10.3308C10.9796 10.482 10.7159 10.6503 10.4636 10.8348C10.1248 11.098 9.72998 11.525 9.72998 12.1802C9.72924 12.3844 9.80965 12.5806 9.95353 12.7255C10.0974 12.8704 10.293 12.9523 10.4972 12.953C10.7014 12.9538 10.8975 12.8734 11.0425 12.7295C11.1874 12.5856 11.2692 12.39 11.27 12.1858C11.3091 12.133 11.3563 12.0867 11.41 12.0486C11.5528 11.938 11.711 11.847 11.9224 11.7238C12.0316 11.6608 12.1562 11.588 12.3004 11.5012C13.048 11.0462 14.07 10.2958 14.07 8.75023C14.07 6.89943 12.509 5.35523 10.5 5.35523C8.49098 5.35523 6.92998 6.89943 6.92998 8.75023C6.92998 8.95444 7.01111 9.1503 7.15551 9.2947C7.29991 9.4391 7.49577 9.52023 7.69998 9.52023C7.9042 9.52023 8.10005 9.4391 8.24446 9.2947C8.38886 9.1503 8.46998 8.95444 8.46998 8.75023Z" fill="#212427" fill-opacity="0.75"/>
</g>
</svg>
