<svg width="17" height="18" viewBox="0 0 17 18" fill="none" xmlns="http://www.w3.org/2000/svg">
<g id="tabler:search">
<path id="Vector" d="M14.875 15.375L10.625 11.125M2.125 7.58333C2.125 8.23447 2.25325 8.87923 2.50243 9.48081C2.75161 10.0824 3.11684 10.629 3.57726 11.0894C4.03769 11.5498 4.58429 11.9151 5.18586 12.1642C5.78743 12.4134 6.4322 12.5417 7.08333 12.5417C7.73447 12.5417 8.37923 12.4134 8.98081 12.1642C9.58238 11.9151 10.129 11.5498 10.5894 11.0894C11.0498 10.629 11.4151 10.0824 11.6642 9.48081C11.9134 8.87923 12.0417 8.23447 12.0417 7.58333C12.0417 6.9322 11.9134 6.28743 11.6642 5.68586C11.4151 5.08429 11.0498 4.53769 10.5894 4.07726C10.129 3.61684 9.58238 3.25161 8.98081 3.00243C8.37923 2.75325 7.73447 2.625 7.08333 2.625C6.4322 2.625 5.78743 2.75325 5.18586 3.00243C4.58429 3.25161 4.03769 3.61684 3.57726 4.07726C3.11684 4.53769 2.75161 5.08429 2.50243 5.68586C2.25325 6.28743 2.125 6.9322 2.125 7.58333Z" stroke="#212427" stroke-opacity="0.5" stroke-width="1.5" stroke-linecap="round" stroke-linejoin="round"/>
</g>
</svg>
